<?xml version="1.0" encoding="utf-8"?>
<!-- Generator: Adobe Illustrator 24.1.2, SVG Export Plug-In . SVG Version: 6.00 Build 0)  -->
<svg version="1.1" id="Слой_2" xmlns="http://www.w3.org/2000/svg" xmlns:xlink="http://www.w3.org/1999/xlink" x="0px" y="0px"
	 viewBox="0 0 1080 522" style="enable-background:new 0 0 1080 522;" xml:space="preserve">
<style type="text/css">
	.st0{fill-rule:evenodd;clip-rule:evenodd;fill:#564275;}
	.st1{fill-rule:evenodd;clip-rule:evenodd;fill:#CD3259;}
	.st2{fill-rule:evenodd;clip-rule:evenodd;fill:#73445E;}
	.st3{fill-rule:evenodd;clip-rule:evenodd;fill:#3E4570;}
	.st4{fill-rule:evenodd;clip-rule:evenodd;fill:url(#SVGID_1_);}
	.st5{fill-rule:evenodd;clip-rule:evenodd;fill:#FFFFFF;}
</style>
<g>
	<g>
		<path class="st0" d="M49.45,252c0,13.66-11.07,24.73-24.73,24.73C11.07,276.73,0,265.66,0,252c0-13.65,11.07-24.72,24.72-24.72
			C38.38,227.28,49.45,238.34,49.45,252"/>
		<path class="st1" d="M634.42,228.39c0,22.47-18.21,40.67-40.67,40.67c-22.45,0-40.66-18.21-40.66-40.67
			c0-22.45,18.21-40.66,40.66-40.66C616.22,187.73,634.42,205.94,634.42,228.39"/>
		<path class="st2" d="M489.41,435.45c0,5.87-4.77,10.63-10.63,10.63c-5.87,0-10.63-4.76-10.63-10.63c0-5.87,4.76-10.63,10.63-10.63
			C484.64,424.82,489.41,429.58,489.41,435.45"/>
		<path class="st3" d="M178.03,495.78c0,8.87-7.19,16.06-16.06,16.06c-8.86,0-16.06-7.19-16.06-16.06c0-8.87,7.2-16.06,16.06-16.06
			C170.84,479.72,178.03,486.91,178.03,495.78"/>
		<g>
			<linearGradient id="SVGID_1_" gradientUnits="userSpaceOnUse" x1="136.5595" y1="363.0528" x2="474.4386" y2="79.3724">
				<stop  offset="0" style="stop-color:#64406A"/>
				<stop  offset="0.0392" style="stop-color:#693F69"/>
				<stop  offset="0.4848" style="stop-color:#9F3860"/>
				<stop  offset="0.8184" style="stop-color:#C0345B"/>
				<stop  offset="1" style="stop-color:#CD3259"/>
			</linearGradient>
			<path class="st4" d="M513.66,220.56c-6.47,171.92-220.45,301.33-220.45,301.33c-4.2-0.09-226.92-136.8-220.45-301.33
				C77.55,98.9,171.46,0.11,293.21,0.11S518.24,98.9,513.66,220.56z"/>
			<path class="st5" d="M395.35,161.36l-7.7,21.86l21.11,4.82l3.52-12.04l-2.09-13.93L395.35,161.36z M407.09,185.18L407.09,185.18
				l-16.28-3.71l6.21-17.62l11.08,0.52l1.73,11.46L407.09,185.18z"/>
			<path class="st5" d="M434.05,131.29c-0.4-1.72-2.26-4.92-4.76-8.15c-1.45-1.89-4.13-5.07-6.92-6.97v-0.31
				c0-0.06,0-6.39-0.02-8.93c-0.03-2.49-0.38-3.9-2.18-4.69c-1.46-0.65-4.19-0.37-4.72-0.31l-0.04,0c-0.02,0-1.52,0.23-3.57,0.54
				v-3.99h-4.75v4.72c-3.78,0.59-6.14,0.99-6.99,1.19c-2.53,0.58-3.11,3.58-3.06,5.28v16.93c-3.47,3.45-6.48,6.47-7.35,7.34
				l-1.56-1.63l-9.99-2.38l-25.86,1.55l17.32,4.01l11.64,6.26l4.74-0.31c-0.21,1.27-0.16,2.69,0.17,4.2
				c0.31,1.39,0.84,2.79,1.55,4.17l-4.54-6.51l-13.02,0.56l-10.52,5.67l18.47,24.24l9.13-5.59l7.97-7.67l-4.29-6.13
				c0.25,0.27,0.49,0.55,0.74,0.8c3.67,3.72,8.25,5.94,12.23,5.94c1.97,0,3.67-0.55,4.97-1.61c-0.21-0.31-0.41-0.62-0.61-0.93
				c-1.11,0.93-2.61,1.43-4.36,1.43c-3.7,0-7.97-2.09-11.43-5.61c-4.09-4.14-6.04-9.24-5.32-12.96c-0.36,0-0.74,0-1.11,0l9.47-0.61
				l2.52,2.19l12.22,18.1l18.52,13.04l-12.96-19.85l16.55-16.19l0.04-0.06C432.44,137.93,434.86,134.86,434.05,131.29z
				 M385.7,166.25L385.7,166.25l-7.05,4.33l-15.45-20.29l7.56-4.07l11.15-0.48L392,160.19L385.7,166.25z M403.64,109.85
				L403.64,109.85c0-0.5,0.62-1.12,2.38-1.27l-0.21-2.4c-1.78,0.15-3.08,0.72-3.86,1.7c-0.71,0.89-0.73,1.82-0.71,2.16v11.31
				l-1.81,1.54v-13.24v-0.04c-0.02-0.55,0.12-2.63,1.2-2.87c0.54-0.12,2.1-0.42,6.45-1.09v2.84l4.75-0.79v-2.78
				c2.09-0.32,3.71-0.56,3.91-0.59c1.03-0.12,2.83-0.16,3.47,0.13c0.43,0.19,0.71,0.31,0.74,2.52c0.02,1.68,0.02,5.03,0.02,7.11
				l-1.89-0.78l-0.07-5.19l-2.4,0.04l0.07,5.23c-0.7-0.14-1.37-0.22-1.99-0.22c-1.44,0-2.69,0.36-3.72,1.07
				c-0.69,0.47-3.23,2.88-6.3,5.86v-10.09l0.02-0.03L403.64,109.85z M381.76,139.29L381.76,139.29l-11.32-6.08l-1.46-0.34l8.93-0.54
				l8.97,2.14l4.05,4.23L381.76,139.29z M411.93,159.4L411.93,159.4l-11.02-16.32l2.12-1.82l2.53,1.84l14.28,21.87L411.93,159.4z
				 M430.5,136.49L430.5,136.49l-15.17,14.85l-7.11-10.5l-0.12-0.1c-0.02-0.02-2.27-2.01-3.12-2.78c-0.48-0.43-1.07-0.65-1.71-0.65
				c-0.92,0-1.65,0.46-1.79,0.56l-3.19,2.24l-6.1-5.32c7.31-7.32,17.81-17.72,19.09-18.6c0.64-0.43,1.42-0.65,2.37-0.65
				c1.69,0,3.84,0.68,6.39,2.03c4.55,2.39,11.03,11.5,11.66,14.25C432.22,134.05,430.74,136.17,430.5,136.49z"/>
			<path class="st5" d="M415.71,117.56c-0.46-0.48-1.22-0.5-1.7-0.03l-14.62,14.03c-0.48,0.46-0.5,1.22-0.04,1.7
				c0.24,0.25,0.55,0.37,0.88,0.37c0.3,0,0.6-0.12,0.83-0.34l14.62-14.03C416.16,118.81,416.17,118.04,415.71,117.56z"/>
			<path class="st5" d="M421.86,120.05c-0.46-0.48-1.22-0.5-1.7-0.04l-15.4,14.68c-0.48,0.46-0.5,1.22-0.04,1.7
				c0.24,0.25,0.55,0.37,0.87,0.37c0.31,0,0.6-0.11,0.84-0.33l15.39-14.68C422.3,121.3,422.31,120.53,421.86,120.05z"/>
			<path class="st5" d="M426.42,124.22c-0.46-0.48-1.22-0.49-1.7-0.03l-15.33,14.74c-0.48,0.46-0.49,1.22-0.02,1.7
				c0.23,0.25,0.55,0.37,0.86,0.37c0.3,0,0.6-0.12,0.84-0.34l15.32-14.74C426.86,125.47,426.88,124.7,426.42,124.22z"/>
			<path class="st5" d="M428.63,129.4l-15.45,14.77c-0.48,0.46-0.5,1.22-0.04,1.7c0.24,0.25,0.55,0.37,0.88,0.37
				c0.3,0,0.59-0.11,0.83-0.33l15.45-14.77c0.48-0.46,0.5-1.22,0.04-1.7C429.87,128.97,429.11,128.95,428.63,129.4z"/>
			<polygon class="st5" points="417.92,107.28 417.75,104.88 412.44,105.27 412.62,107.67 			"/>
			<path class="st5" d="M408.77,225.04c-3.3,0-5.99,2.69-5.99,5.99c0,3.31,2.69,6,5.99,6c3.31,0,5.99-2.69,5.99-6
				C414.76,227.73,412.08,225.04,408.77,225.04z M408.77,233.73L408.77,233.73c-1.5,0-2.71-1.21-2.71-2.71
				c0-1.49,1.21-2.71,2.71-2.71c1.49,0,2.71,1.22,2.71,2.71C411.47,232.52,410.26,233.73,408.77,233.73z"/>
			<path class="st5" d="M438.53,235.11c4.91,0,8.89-4,8.89-8.9c0-4.9-3.99-8.89-8.89-8.89c-4.91,0-8.89,4-8.89,8.89
				C429.63,231.12,433.62,235.11,438.53,235.11z M438.53,220.61L438.53,220.61c3.09,0,5.61,2.52,5.61,5.6
				c0,3.09-2.52,5.61-5.61,5.61c-3.09,0-5.61-2.52-5.61-5.61C432.92,223.13,435.43,220.61,438.53,220.61z"/>
			<path class="st5" d="M431.13,252.16h-21.97c-1.63,0-2.96,1.32-2.96,2.96v8.85c0,1.63,1.33,2.96,2.96,2.96h21.97
				c1.63,0,2.96-1.33,2.96-2.96v-8.85C434.09,253.49,432.76,252.16,431.13,252.16z M430.8,263.65L430.8,263.65h-21.31v-8.2h21.31
				V263.65z"/>
			<path class="st5" d="M471.61,243.66c-0.48-0.3-1.08-0.34-1.59-0.09l-14.12,6.76v-5.99c0-1.64-1.32-2.96-2.95-2.96h-3.93
				c4.81-3.33,7.96-8.89,7.96-15.17c0-10.17-8.28-18.44-18.45-18.44c-9.32,0-17.04,6.94-18.28,15.93c-2.42-3.78-6.66-6.3-11.48-6.3
				c-7.52,0-13.63,6.11-13.63,13.63c0,4.14,1.85,7.84,4.77,10.35h-1.81c-1.63,0-2.96,1.32-2.96,2.96v9.2h-4.53
				c-1.63,0-2.95,1.32-2.95,2.95v6.73c0,1.63,1.32,2.96,2.95,2.96h4.53v7.65c0,1.63,1.33,2.96,2.96,2.96h24.7l-12,22.83
				c-0.42,0.8-0.12,1.8,0.69,2.22c0.8,0.42,1.8,0.12,2.22-0.69l11.8-22.45l11.62,22.45c0.29,0.56,0.87,0.89,1.46,0.89
				c0.25,0,0.5-0.06,0.75-0.18c0.8-0.42,1.12-1.41,0.7-2.22l-11.83-22.83h24.72c1.63,0,2.95-1.33,2.95-2.96v-5.26l14.11,6.95
				c0.23,0.12,0.48,0.17,0.73,0.17c0.3,0,0.6-0.08,0.87-0.25c0.48-0.31,0.77-0.83,0.77-1.4v-29.01
				C472.38,244.49,472.09,243.96,471.61,243.66z M390.93,262.9L390.93,262.9v-6.07h4.2v6.07H390.93z M438.53,211.05L438.53,211.05
				c8.36,0,15.16,6.8,15.16,15.16c0,8.36-6.8,15.17-15.16,15.17s-15.17-6.8-15.17-15.17C423.36,217.85,430.17,211.05,438.53,211.05z
				 M428.03,241.38L428.03,241.38h-10.39c2.09-1.8,3.65-4.24,4.34-7.01C423.38,237.19,425.47,239.6,428.03,241.38z M398.43,231.03
				L398.43,231.03c0-5.7,4.64-10.34,10.34-10.34c5.7,0,10.34,4.64,10.34,10.34c0,5.71-4.64,10.35-10.34,10.35
				C403.07,241.38,398.43,236.73,398.43,231.03z M452.62,273.51L452.62,273.51h-27.1l0,0h-27.1v-28.85h54.19V273.51z M469.09,271.41
				L469.09,271.41l-13.19-6.49v-10.94l13.19-6.31V271.41z"/>
			<path class="st5" d="M442.81,257.82c1.1,0,2-0.9,2-2c0-1.11-0.9-2-2-2c-1.11,0-2.01,0.89-2.01,2
				C440.8,256.91,441.7,257.82,442.81,257.82z"/>
			<path class="st5" d="M442.81,265.29c1.1,0,2-0.9,2-2c0-1.11-0.9-2-2-2c-1.11,0-2.01,0.89-2.01,2
				C440.8,264.39,441.7,265.29,442.81,265.29z"/>
			<path class="st5" d="M321.15,438.4h-2.55c-0.61-2.35-1.55-4.57-2.75-6.61l1.8-1.8c0.52-0.53,0.81-1.22,0.81-1.96
				c0-0.74-0.29-1.44-0.81-1.96l-5.46-5.47c-0.52-0.52-1.22-0.81-1.96-0.81c-0.74,0-1.44,0.29-1.96,0.81l-1.81,1.81
				c-2.04-1.2-4.26-2.13-6.6-2.76v-2.54c0-1.53-1.25-2.77-2.78-2.77h-7.72c-1.53,0-2.78,1.24-2.78,2.77v2.54
				c-2.34,0.62-4.56,1.56-6.61,2.76l-1.8-1.81c-0.52-0.52-1.22-0.81-1.96-0.81c-0.74,0-1.44,0.29-1.96,0.81l-5.46,5.47
				c-0.53,0.52-0.81,1.22-0.81,1.96c0,0.74,0.28,1.43,0.81,1.96l1.8,1.8c-1.2,2.04-2.13,4.26-2.75,6.61h-2.54
				c-1.53,0-2.78,1.24-2.78,2.77v7.73c0,1.53,1.25,2.77,2.78,2.77h2.54c0.61,2.35,1.55,4.57,2.75,6.61l-1.8,1.8
				c-0.53,0.53-0.81,1.22-0.81,1.96c0,0.74,0.28,1.44,0.81,1.96l5.46,5.47c0.52,0.52,1.22,0.81,1.96,0.81
				c0.74,0,1.44-0.29,1.96-0.81l1.8-1.81c2.05,1.2,4.27,2.13,6.61,2.75v2.55c0,1.53,1.25,2.77,2.78,2.77h7.72
				c1.53,0,2.78-1.24,2.78-2.77v-2.55c2.34-0.61,4.56-1.55,6.6-2.75l1.81,1.81c0.52,0.52,1.22,0.81,1.96,0.81
				c0.74,0,1.44-0.29,1.96-0.81l5.46-5.47c0.52-0.52,0.81-1.22,0.81-1.96c0-0.74-0.29-1.43-0.81-1.96l-1.8-1.8
				c1.2-2.04,2.13-4.26,2.75-6.61h2.55c1.52,0,2.77-1.24,2.77-2.77v-7.73C323.92,439.64,322.67,438.4,321.15,438.4z M321.78,448.9
				L321.78,448.9c0,0.36-0.29,0.64-0.64,0.64h-2.08h-2.18c-0.13,0.73-0.31,1.44-0.5,2.13c-0.51,1.78-1.22,3.46-2.09,5.05
				c-0.36,0.64-0.74,1.27-1.15,1.86l1.53,1.54l1.48,1.47c0.12,0.12,0.19,0.29,0.19,0.46c0,0.17-0.07,0.33-0.19,0.46l-5.46,5.46
				c-0.25,0.24-0.66,0.24-0.91,0l-1.48-1.47l-1.53-1.54c-0.6,0.41-1.22,0.79-1.87,1.15c-1.58,0.89-3.27,1.59-5.04,2.09
				c-0.7,0.21-1.41,0.37-2.13,0.51v2.17v2.08c0,0.36-0.29,0.64-0.65,0.64h-7.72c-0.36,0-0.65-0.28-0.65-0.64v-2.08v-2.17
				c-0.72-0.14-1.43-0.31-2.13-0.51c-1.77-0.5-3.46-1.21-5.04-2.09c-0.65-0.36-1.27-0.74-1.87-1.15l-1.53,1.54l-1.48,1.47
				c-0.24,0.24-0.66,0.24-0.91,0l-5.46-5.46c-0.12-0.12-0.19-0.28-0.19-0.46c0-0.17,0.07-0.33,0.19-0.46l1.48-1.47l1.53-1.54
				c-0.41-0.6-0.79-1.22-1.14-1.86c-0.89-1.59-1.59-3.27-2.1-5.05c-0.2-0.69-0.37-1.41-0.5-2.13h-2.18h-2.08
				c-0.36,0-0.65-0.28-0.65-0.64v-7.73c0-0.36,0.29-0.64,0.65-0.64h2.08h2.18c0.13-0.73,0.31-1.44,0.5-2.13
				c0.51-1.77,1.22-3.47,2.1-5.05c0.35-0.64,0.74-1.27,1.14-1.86l-1.53-1.54l-1.48-1.47c-0.12-0.12-0.19-0.29-0.19-0.46
				c0-0.17,0.07-0.33,0.19-0.46l5.46-5.46c0.12-0.12,0.28-0.19,0.46-0.19c0.17,0,0.33,0.07,0.46,0.19l1.48,1.47l1.53,1.54
				c0.6-0.41,1.22-0.79,1.87-1.15c1.58-0.89,3.27-1.59,5.04-2.09c0.7-0.21,1.41-0.37,2.13-0.51v-2.17v-2.08
				c0-0.36,0.29-0.64,0.65-0.64h7.72c0.36,0,0.65,0.28,0.65,0.64v2.08v2.17c0.72,0.14,1.43,0.31,2.13,0.51
				c1.77,0.5,3.46,1.21,5.04,2.09c0.65,0.36,1.27,0.74,1.87,1.15l1.53-1.54l1.48-1.47c0.12-0.12,0.28-0.19,0.46-0.19
				c0.17,0,0.33,0.07,0.46,0.19l5.46,5.46c0.25,0.25,0.25,0.65,0,0.9l-1.48,1.48l-1.53,1.54c0.41,0.6,0.79,1.22,1.15,1.86
				c0.88,1.58,1.58,3.28,2.09,5.05c0.2,0.69,0.37,1.41,0.5,2.13h2.18h2.08c0.35,0,0.64,0.28,0.64,0.64V448.9z"/>
			<path class="st5" d="M293.21,428.74c-8.98,0-16.29,7.31-16.29,16.3s7.31,16.3,16.29,16.3s16.3-7.31,16.3-16.3
				S302.2,428.74,293.21,428.74z M293.21,459.2L293.21,459.2c-7.8,0-14.16-6.35-14.16-14.16s6.35-14.16,14.16-14.16
				c7.81,0,14.16,6.35,14.16,14.16S301.02,459.2,293.21,459.2z"/>
			<path class="st5" d="M293.21,433.45c-6.39,0-11.58,5.2-11.58,11.58s5.2,11.58,11.58,11.58c6.4,0,11.59-5.2,11.59-11.58
				S299.61,433.45,293.21,433.45z M293.21,454.49L293.21,454.49c-5.2,0-9.45-4.24-9.45-9.46c0-5.21,4.24-9.46,9.45-9.46
				c5.21,0,9.46,4.24,9.46,9.46C302.67,450.25,298.43,454.49,293.21,454.49z"/>
			<path class="st5" d="M228.79,400.64h-29.54c-3.95,0-7.17-3.22-7.17-7.17V337.6c0-3.95,3.22-7.17,7.17-7.17h29.54
				c3.95,0,7.17,3.22,7.17,7.17v55.86C235.96,397.42,232.74,400.64,228.79,400.64z M199.25,332.86L199.25,332.86
				c-2.61,0-4.74,2.13-4.74,4.74v55.86c0,2.61,2.13,4.74,4.74,4.74h29.54c2.61,0,4.74-2.13,4.74-4.74V337.6
				c0-2.61-2.13-4.74-4.74-4.74H199.25z"/>
			<path class="st5" d="M213.88,360.62c-6.03,0-10.94-4.91-10.94-10.94c0-6.03,4.91-10.93,10.94-10.93c6.02,0,10.94,4.9,10.94,10.93
				C224.82,355.72,219.9,360.62,213.88,360.62z M213.88,341.18L213.88,341.18c-4.69,0-8.51,3.81-8.51,8.51s3.81,8.51,8.51,8.51
				c4.68,0,8.51-3.81,8.51-8.51S218.56,341.18,213.88,341.18z"/>
			<path class="st5" d="M213.88,355.4c-3.15,0-5.72-2.56-5.72-5.72c0-3.15,2.56-5.72,5.72-5.72s5.72,2.56,5.72,5.72
				C219.6,352.84,217.03,355.4,213.88,355.4z M213.88,346.4L213.88,346.4c-1.81,0-3.29,1.47-3.29,3.28c0,1.81,1.48,3.28,3.29,3.28
				c1.81,0,3.28-1.47,3.28-3.28C217.16,347.87,215.69,346.4,213.88,346.4z"/>
			<path class="st5" d="M214.31,392.35c-7.76,0-14.08-6.32-14.08-14.08c0-7.76,6.32-14.08,14.08-14.08s14.07,6.32,14.07,14.08
				C228.38,386.03,222.07,392.35,214.31,392.35z M214.31,366.62L214.31,366.62c-6.43,0-11.65,5.23-11.65,11.65
				s5.22,11.65,11.65,11.65c6.42,0,11.64-5.23,11.64-11.65S220.73,366.62,214.31,366.62z"/>
			<path class="st5" d="M214.31,385.77c-4.15,0-7.5-3.37-7.5-7.5s3.36-7.5,7.5-7.5c4.14,0,7.5,3.37,7.5,7.5
				S218.45,385.77,214.31,385.77z M214.31,373.2L214.31,373.2c-2.8,0-5.08,2.28-5.08,5.07s2.28,5.07,5.08,5.07
				c2.8,0,5.07-2.28,5.07-5.07S217.11,373.2,214.31,373.2z"/>
			<path class="st5" d="M199.58,341.29c-1.51,0-2.75-1.23-2.75-2.75c0-1.52,1.23-2.76,2.75-2.76c1.52,0,2.76,1.23,2.76,2.76
				C202.34,340.05,201.11,341.29,199.58,341.29z M199.58,337L199.58,337c-0.84,0-1.53,0.69-1.53,1.54c0,0.84,0.69,1.53,1.53,1.53
				c0.84,0,1.54-0.69,1.54-1.53C201.12,337.69,200.43,337,199.58,337z"/>
			<path class="st5" d="M228.75,341.29c-1.52,0-2.76-1.23-2.76-2.75c0-1.52,1.23-2.76,2.76-2.76c1.51,0,2.75,1.23,2.75,2.76
				C231.49,340.05,230.26,341.29,228.75,341.29z M228.75,337L228.75,337c-0.85,0-1.54,0.69-1.54,1.54c0,0.84,0.69,1.53,1.54,1.53
				c0.84,0,1.53-0.69,1.53-1.53C230.28,337.69,229.59,337,228.75,337z"/>
			<path class="st5" d="M199.58,395.74c-1.51,0-2.75-1.23-2.75-2.76c0-1.51,1.23-2.75,2.75-2.75c1.52,0,2.76,1.23,2.76,2.75
				C202.34,394.51,201.11,395.74,199.58,395.74z M199.58,391.46L199.58,391.46c-0.84,0-1.53,0.69-1.53,1.53
				c0,0.85,0.69,1.54,1.53,1.54c0.84,0,1.54-0.69,1.54-1.54C201.12,392.14,200.43,391.46,199.58,391.46z"/>
			<path class="st5" d="M228.75,395.74c-1.52,0-2.76-1.23-2.76-2.76c0-1.51,1.23-2.75,2.76-2.75c1.51,0,2.75,1.23,2.75,2.75
				C231.49,394.51,230.26,395.74,228.75,395.74z M228.75,391.46L228.75,391.46c-0.85,0-1.54,0.69-1.54,1.53
				c0,0.85,0.69,1.54,1.54,1.54c0.84,0,1.53-0.69,1.53-1.54C230.28,392.14,229.59,391.46,228.75,391.46z"/>
			<path class="st5" d="M417.61,386.73c-0.01-0.02-0.02-0.03-0.03-0.05l-19.06-33.76v-18.2c1.61-0.65,2.76-2.23,2.76-4.06
				c0-2.42-1.97-4.4-4.39-4.4h-17.41c-2.42,0-4.39,1.98-4.39,4.4c0,1.79,1.08,3.33,2.61,4v18.28l-18.28,33.2
				c-0.87,1.46-1.33,3.12-1.33,4.82c0,4.67,3.42,8.6,8,9.28c0.16,0.07,0.33,0.11,0.51,0.11h43.12c0.11,0,0.21-0.02,0.3-0.03
				c4.84-0.41,8.6-4.47,8.6-9.36C418.61,389.47,418.27,388.06,417.61,386.73z M380.12,353.89L380.12,353.89
				c0.11-0.19,0.16-0.41,0.16-0.62v-18.23h2.16c0.71,0,1.3-0.58,1.3-1.29c0-0.72-0.59-1.3-1.3-1.3h-2.97c-0.99,0-1.8-0.81-1.8-1.8
				c0-0.99,0.8-1.8,1.8-1.8h17.41c0.98,0,1.8,0.81,1.8,1.8c0,0.98-0.81,1.8-1.8,1.8h-2.71c-0.71,0-1.3,0.58-1.3,1.3
				c0,0.71,0.59,1.29,1.3,1.29h1.76v18.23c0,0.22,0.05,0.44,0.17,0.64l8.6,15.21c-2.26-0.1-5.39-0.15-7.65,0.18
				c-2.32,0.32-5.15,1.51-8.15,2.77c-3.86,1.61-8.22,3.44-11.67,3.44c-0.02,0-0.03,0-0.05,0c-3.33-0.02-6.4-0.91-8.11-1.51
				L380.12,353.89z M409.63,397.74L409.63,397.74c-0.04,0.01-0.08,0.01-0.12,0.02h-42.58c-0.07-0.02-0.14-0.03-0.21-0.04
				c-3.45-0.37-6.06-3.28-6.06-6.75c0-1.23,0.33-2.44,0.97-3.49c0.01-0.02,0.02-0.03,0.02-0.05l6.11-11.1
				c1.81,0.68,5.38,1.78,9.37,1.8c0.02,0,0.04,0,0.07,0c3.98,0,8.6-1.94,12.68-3.64c2.84-1.19,5.53-2.32,7.51-2.61
				c2.64-0.37,6.83-0.18,8.79-0.07l9.1,16.12c0.47,0.94,0.71,1.96,0.71,3.03C416.01,394.55,413.2,397.52,409.63,397.74z"/>
			<path class="st5" d="M405.55,389.64h-29.04c-0.72,0-1.31,0.58-1.31,1.3c0,0.71,0.59,1.3,1.31,1.3h29.04c0.72,0,1.3-0.59,1.3-1.3
				C406.85,390.22,406.27,389.64,405.55,389.64z"/>
			<circle class="st5" cx="370.83" cy="391.3" r="1.37"/>
			<path class="st5" d="M388.17,354.37c0.76,0,1.37-0.62,1.37-1.37c0-0.77-0.61-1.38-1.37-1.38c-0.76,0-1.37,0.61-1.37,1.38
				C386.79,353.75,387.41,354.37,388.17,354.37z"/>
			<path class="st5" d="M394.22,363.17c0.75,0,1.37-0.62,1.37-1.37c0-0.76-0.62-1.38-1.37-1.38c-0.76,0-1.37,0.62-1.37,1.38
				C392.84,362.55,393.46,363.17,394.22,363.17z"/>
			<path class="st5" d="M382.27,369.23c2.41,0,4.37-1.96,4.37-4.37c0-2.41-1.96-4.37-4.37-4.37c-2.41,0-4.37,1.96-4.37,4.37
				C377.9,367.27,379.86,369.23,382.27,369.23z M382.27,363.1L382.27,363.1c0.98,0,1.77,0.79,1.77,1.77c0,0.98-0.79,1.77-1.77,1.77
				c-0.98,0-1.77-0.79-1.77-1.77C380.5,363.89,381.29,363.1,382.27,363.1z"/>
			<path class="st5" d="M175.38,241.14c-1.1-0.01-1.99,0.89-1.99,2l-0.02,12.48c-0.01,13.2-10.71,23.94-23.84,23.94
				c-13.14,0-23.81-10.75-23.79-23.95l0.01-12.47c0-1.11-0.89-2-1.99-2c-1.09,0-1.99,0.89-1.99,2l-0.02,12.47
				c-0.02,14.73,11.38,26.84,25.77,27.87l-0.01,10.37h-10.28c-1.1,0-1.99,0.89-1.99,1.99c-0.01,1.11,0.89,2,1.99,1.99l24.52,0.01
				c1.1,0,1.99-0.89,1.99-2c0-1.1-0.89-1.99-1.99-1.99H151.5l0.01-10.37c14.4-1.03,25.82-13.13,25.84-27.86l0.02-12.48
				C177.36,242.03,176.48,241.14,175.38,241.14z"/>
			<path class="st5" d="M150.93,212.76h-2.65c-9.08,0-16.48,7.43-16.49,16.56l-0.03,27.62c-0.01,9.13,7.37,16.56,16.45,16.56h2.66
				c9.08,0,16.48-7.42,16.49-16.56l0.03-27.62C167.39,220.19,160,212.77,150.93,212.76z M163.4,234.51L163.4,234.51l-7.21-0.01
				c-1.09,0.01-1.99,0.89-1.99,2c0,1.1,0.89,1.99,1.99,1.99l7.2,0.01v5.55h-7.21c-1.1,0-1.99,0.89-1.99,1.99
				c-0.01,1.11,0.89,2,1.98,2h7.21v5.56l-7.21-0.01c-1.1,0-1.99,0.9-1.99,2c0,1.1,0.89,1.99,1.99,1.99l7.19,0.01
				c-0.36,6.61-5.82,11.89-12.5,11.89h-2.65c-6.66,0-12.13-5.28-12.47-11.9h7.19c1.1,0,1.99-0.89,1.99-1.99c0-1.1-0.89-1.99-1.99-2
				h-7.21l0.02-5.55h7.2c1.1,0,1.99-0.89,1.99-2c0-1.1-0.89-1.99-1.99-1.99h-7.2l0.01-5.56h7.21c1.09,0,1.98-0.89,1.99-1.99
				c0-1.11-0.89-2-1.99-2l-7.2,0.01v-5.2c0.01-4.97,2.9-9.29,7.1-11.32l-0.01,5.65c0,1.1,0.89,1.99,1.99,1.99
				c1.1,0,1.99-0.89,1.99-1.99l0.01-6.8c0.47-0.06,5.06-0.06,5.53,0l-0.01,6.8c0,1.1,0.89,1.99,1.99,1.99
				c1.09,0,1.99-0.89,1.99-1.99l0.01-5.65c4.19,2.04,7.08,6.35,7.07,11.33L163.4,234.51z"/>
			<path class="st5" d="M221.34,116.12H204.7v-9.42c0-1.05-0.84-1.89-1.89-1.89h-39.51c-1.05,0-1.89,0.85-1.89,1.89v9.42h-16.63
				c-3.46,0-6.28,2.82-6.28,6.3v30.16c0,3.47,2.82,6.29,6.28,6.29h16.63v18.24c0,1.04,0.84,1.89,1.89,1.89h39.51
				c1.04,0,1.89-0.85,1.89-1.89v-18.24h16.64c3.47,0,6.28-2.82,6.28-6.29v-30.16C227.62,118.94,224.81,116.12,221.34,116.12z
				 M204.7,119.91L204.7,119.91h4.51v5.3h-4.51V119.91z M165.2,108.59L165.2,108.59h35.73v16.61H165.2V108.59z M156.92,119.91
				L156.92,119.91h4.5v5.3h-4.5V119.91z M200.93,175.21L200.93,175.21H165.2v-24.95h35.73V175.21z M223.84,152.58L223.84,152.58
				c0,1.38-1.12,2.51-2.5,2.51H204.7v-4.82h3.45c1.04,0,1.89-0.85,1.89-1.89c0-1.05-0.84-1.89-1.89-1.89h-5.34h-39.51h-5.34
				c-1.04,0-1.89,0.84-1.89,1.89c0,1.04,0.85,1.89,1.89,1.89h3.44v4.82h-16.63c-1.38,0-2.5-1.13-2.5-2.51v-30.16
				c0-1.38,1.12-2.51,2.5-2.51h8.35v7.2c0,1.04,0.84,1.89,1.89,1.89h56.08c1.05,0,1.89-0.85,1.89-1.89v-7.2h8.35
				c1.38,0,2.5,1.13,2.5,2.51V152.58z"/>
			<path class="st5" d="M150.49,133.12c1.3,0,2.36,1.07,2.36,2.37c0,1.31-1.06,2.37-2.36,2.37c-1.31,0-2.37-1.07-2.37-2.37
				C148.11,134.19,149.18,133.12,150.49,133.12z"/>
			<path class="st5" d="M182.52,164.67h-8.82c-1.04,0-1.89,0.84-1.89,1.89c0,1.04,0.84,1.89,1.89,1.89h8.82
				c1.04,0,1.89-0.85,1.89-1.89C184.4,165.52,183.56,164.67,182.52,164.67z"/>
			<path class="st5" d="M192.44,155.08H173.7c-1.04,0-1.89,0.85-1.89,1.89c0,1.05,0.84,1.89,1.89,1.89h18.74
				c1.04,0,1.89-0.84,1.89-1.89C194.33,155.93,193.48,155.08,192.44,155.08z"/>
			<path class="st5" d="M321.96,52.2h-57.48c-1.04,0-1.89,0.84-1.89,1.88v28.46c0,1.04,0.85,1.89,1.89,1.89
				c1.05,0,1.9-0.85,1.9-1.89V55.97h53.67v26.57c0,1.04,0.85,1.89,1.9,1.89c1.04,0,1.89-0.85,1.89-1.89V54.08
				C323.85,53.04,323,52.2,321.96,52.2z"/>
			<path class="st5" d="M335.6,89.26h-3.5V49.7c0-3.14-2.56-5.69-5.73-5.69h-66.3c-3.16,0-5.73,2.56-5.73,5.69v39.57h-3.5
				c-0.94,0-1.7,0.76-1.7,1.7v3.33c0,4.61,3.78,8.36,8.42,8.36h71.33c4.65,0,8.42-3.76,8.42-8.36v-3.33
				C337.31,90.02,336.54,89.26,335.6,89.26z M258.13,49.7L258.13,49.7c0-1.06,0.86-1.92,1.94-1.92h66.3c1.08,0,1.94,0.86,1.94,1.92
				v39.57h-25.7c-0.12-0.01-0.25,0.01-0.37,0.03c-0.8,0.15-1.38,0.85-1.38,1.66c0,1.43-1.17,2.6-2.61,2.6h-10.05
				c-1.44,0-2.61-1.16-2.61-2.6c0-0.95-0.79-1.72-1.75-1.7h-25.7V49.7z M333.89,94.29L333.89,94.29c0,2.74-2.24,4.97-5.01,4.97
				h-71.33c-2.76,0-5.01-2.23-5.01-4.97v-1.64h29.87c0.74,2.48,3.05,4.29,5.78,4.29h10.05c2.73,0,5.05-1.82,5.78-4.29h29.86V94.29z"
				/>
			<path class="st5" d="M296.04,63.15c-0.74-0.73-1.94-0.73-2.69,0l-11.94,11.85c-0.74,0.74-0.74,1.93,0,2.67
				c0.37,0.37,0.86,0.55,1.35,0.55s0.97-0.19,1.34-0.55l11.94-11.85C296.77,65.08,296.77,63.88,296.04,63.15z"/>
			<path class="st5" d="M303.11,70.01c-0.74-0.73-1.94-0.73-2.69,0l-4.76,4.72c-0.74,0.74-0.74,1.93,0,2.67
				c0.37,0.37,0.86,0.55,1.35,0.55c0.48,0,0.97-0.18,1.34-0.55l4.76-4.72C303.85,71.94,303.85,70.75,303.11,70.01z"/>
		</g>
	</g>
	<path class="st5" d="M747.75,167.81c0.87,0.82,1.51,1.77,1.92,2.84c0.41,1.08,0.61,2.17,0.61,3.29c0,1.11-0.2,2.21-0.61,3.28
		c-0.41,1.07-1.05,2.04-1.92,2.9c-0.86,0.87-1.85,1.52-2.94,1.96c-1.09,0.43-2.21,0.66-3.35,0.68c-1.14,0.02-2.26-0.17-3.36-0.58
		c-1.09-0.41-2.05-1.02-2.87-1.84c-2.69-2.69-5.66-4.68-8.93-5.96c-3.26-1.27-6.65-1.91-10.16-1.91c-3.56,0-6.94,0.68-10.16,2.05
		c-3.21,1.37-6.04,3.25-8.48,5.65s-4.37,5.22-5.78,8.48s-2.12,6.76-2.12,10.51c0,3.56,0.66,6.95,1.99,10.19
		c1.32,3.24,3.15,6.08,5.51,8.52c2.35,2.44,5.13,4.39,8.35,5.85c3.21,1.46,6.69,2.21,10.43,2.26c3.56,0.05,6.92-0.56,10.09-1.81
		c3.18-1.26,6.19-3.27,9.07-6.06c0.83-0.83,1.78-1.43,2.87-1.81c1.1-0.39,2.21-0.58,3.36-0.58c1.14,0,2.26,0.2,3.35,0.58
		s2.05,0.96,2.87,1.74c0.86,0.86,1.52,1.84,1.95,2.94c0.43,1.09,0.65,2.21,0.65,3.35c0,1.14-0.2,2.26-0.61,3.35
		c-0.41,1.1-1.03,2.05-1.85,2.87c-4.47,4.43-9.43,7.73-14.88,9.92c-5.45,2.19-11.1,3.28-16.93,3.28c-6.02,0-11.7-1.16-17.03-3.49
		c-5.34-2.33-10.01-5.5-13.99-9.54c-3.99-4.03-7.15-8.76-9.48-14.16c-2.33-5.4-3.49-11.17-3.49-17.28c0-3.88,0.51-7.69,1.51-11.43
		c1-3.74,2.43-7.25,4.28-10.54c1.85-3.28,4.09-6.31,6.74-9.1c2.65-2.78,5.61-5.18,8.9-7.19c3.28-2,6.86-3.57,10.74-4.68
		c3.87-1.11,7.96-1.68,12.24-1.68c5.75,0,11.34,1.08,16.77,3.25S743.33,163.38,747.75,167.81z"/>
	<path class="st5" d="M848.33,234.11c0,1.23-0.23,2.38-0.68,3.46c-0.46,1.07-1.1,1.99-1.92,2.77c-0.83,0.78-1.77,1.39-2.84,1.85
		s-2.22,0.68-3.45,0.68c-1.24,0-2.39-0.23-3.46-0.68c-1.08-0.45-2.01-1.07-2.8-1.85c-0.8-0.77-1.44-1.7-1.92-2.77
		c-0.48-1.08-0.72-2.23-0.72-3.46v-46.73l-18.41,21.41c-0.36,0.51-0.71,0.92-1.02,1.24c-0.18,0.18-0.34,0.34-0.48,0.48
		c-0.14,0.14-0.3,0.25-0.49,0.34l-0.41,0.34l-0.96,0.61c-1.6,0.87-3.19,1.15-4.79,0.86c-1.59-0.3-3.05-1.15-4.38-2.56
		c-0.23-0.18-0.42-0.38-0.58-0.58c-0.17-0.2-0.33-0.42-0.52-0.65l-18.54-21.55v46.8c0,1.23-0.23,2.38-0.68,3.46
		c-0.45,1.07-1.1,1.99-1.92,2.77c-0.82,0.78-1.77,1.39-2.84,1.85c-1.07,0.45-2.22,0.68-3.45,0.68c-1.24,0-2.39-0.23-3.46-0.68
		c-1.08-0.45-2.02-1.07-2.84-1.85c-0.82-0.77-1.46-1.7-1.91-2.77c-0.46-1.08-0.69-2.23-0.69-3.46v-70.07c0-1.09,0.2-2.13,0.58-3.11
		s0.92-1.86,1.61-2.64c0.68-0.77,1.49-1.41,2.4-1.92c0.92-0.5,1.92-0.82,3.01-0.96c1.33-0.23,2.66-0.14,4,0.27
		c1.35,0.41,2.57,1.12,3.66,2.12l27.85,32.5l27.78-32.5c0.82-0.77,1.72-1.36,2.71-1.74c0.98-0.39,1.99-0.63,3.04-0.72
		c0.05,0,0.08-0.01,0.11-0.03c0.02-0.02,0.08-0.04,0.17-0.04h0.35c1.23,0,2.38,0.23,3.45,0.68c1.07,0.46,2.02,1.08,2.84,1.85
		c0.82,0.77,1.46,1.7,1.92,2.77c0.45,1.07,0.68,2.22,0.68,3.45V234.11z"/>
	<path class="st5" d="M913.33,227.81h-36.26l-3.97,9.72c-0.5,1.19-1.19,2.18-2.05,2.98c-0.86,0.8-1.83,1.39-2.9,1.77
		c-1.08,0.39-2.23,0.58-3.46,0.55c-1.24-0.02-2.42-0.28-3.56-0.78c-1.19-0.5-2.17-1.17-2.95-2.02c-0.77-0.85-1.33-1.8-1.68-2.84
		s-0.48-2.15-0.41-3.32c0.07-1.16,0.36-2.33,0.86-3.52l30.03-69.65c0.78-1.73,1.86-3.06,3.25-4c1.39-0.93,3.02-1.4,4.89-1.4
		c1.74,0,3.32,0.47,4.76,1.4c1.43,0.94,2.52,2.25,3.24,3.93l30.25,69.72c0.5,1.14,0.79,2.3,0.85,3.46c0.08,1.17-0.05,2.27-0.37,3.32
		c-0.32,1.05-0.86,2.01-1.61,2.87c-0.76,0.86-1.7,1.55-2.84,2.05c-1.14,0.5-2.3,0.77-3.49,0.78c-1.18,0.03-2.33-0.17-3.42-0.58
		c-1.1-0.41-2.08-1.02-2.94-1.81c-0.87-0.8-1.58-1.77-2.12-2.91L913.33,227.81z M884.25,210.03L884.25,210.03H906l-10.8-26.27
		L884.25,210.03z"/>
	<path class="st5" d="M975.8,155.29c4.6,0,8.92,0.87,12.96,2.6c4.04,1.74,7.56,4.09,10.57,7.08c3.02,2.99,5.4,6.5,7.16,10.54
		c1.75,4.04,2.63,8.36,2.63,12.97c0,4.56-0.88,8.85-2.63,12.86c-1.76,4.02-4.14,7.5-7.16,10.47c-3.01,2.97-6.53,5.31-10.57,7.05
		c-4.04,1.74-8.36,2.6-12.96,2.6h-16.15v12.66c0,1.23-0.23,2.38-0.69,3.46c-0.45,1.07-1.09,1.99-1.91,2.77
		c-0.83,0.78-1.77,1.39-2.84,1.85s-2.22,0.68-3.46,0.68c-1.23,0-2.38-0.23-3.45-0.68c-1.08-0.45-2.02-1.07-2.84-1.85
		c-0.83-0.77-1.46-1.7-1.92-2.77c-0.45-1.08-0.68-2.23-0.68-3.46v-69.92c0-1.24,0.23-2.39,0.68-3.46c0.45-1.08,1.09-2.02,1.92-2.84
		c0.82-0.82,1.77-1.46,2.84-1.92c1.07-0.45,2.22-0.68,3.45-0.68H975.8z M959.65,173.08L959.65,173.08v30.58h16.42
		c2.05,0,4-0.41,5.85-1.23c1.84-0.82,3.46-1.94,4.85-3.35c1.39-1.42,2.5-3.03,3.32-4.86c0.83-1.83,1.24-3.74,1.24-5.75
		c0-2.05-0.42-4-1.27-5.85c-0.84-1.85-1.96-3.48-3.35-4.9c-1.39-1.41-3.01-2.54-4.86-3.38c-1.84-0.84-3.78-1.27-5.78-1.27H959.65z"
		/>
	<path class="st5" d="M1053.11,173.08v61.03c0,1.23-0.24,2.38-0.72,3.46c-0.48,1.07-1.12,1.99-1.92,2.77
		c-0.8,0.78-1.74,1.39-2.84,1.85c-1.1,0.45-2.26,0.68-3.49,0.68c-1.23,0-2.38-0.23-3.45-0.68c-1.08-0.45-2.01-1.07-2.8-1.85
		c-0.8-0.77-1.43-1.7-1.88-2.77c-0.46-1.08-0.69-2.23-0.69-3.46v-61.03h-18c-1.23,0-2.38-0.24-3.45-0.72
		c-1.08-0.48-2.01-1.11-2.8-1.92c-0.8-0.8-1.43-1.74-1.89-2.84c-0.45-1.1-0.68-2.26-0.68-3.49c0-1.24,0.23-2.39,0.68-3.46
		c0.46-1.08,1.08-2.01,1.89-2.8c0.8-0.8,1.73-1.43,2.8-1.89c1.07-0.45,2.22-0.68,3.45-0.68h53.78c1.23,0,2.38,0.24,3.46,0.72
		c1.07,0.48,2.02,1.11,2.84,1.92c0.82,0.8,1.46,1.74,1.92,2.84c0.45,1.1,0.68,2.26,0.68,3.49c0,1.23-0.23,2.38-0.68,3.45
		c-0.46,1.08-1.1,2.01-1.92,2.8c-0.82,0.8-1.77,1.43-2.84,1.89c-1.08,0.45-2.23,0.68-3.46,0.68H1053.11z"/>
	<path class="st5" d="M689.24,276.41h46.04c1.35,0,2.6,0.25,3.75,0.76c1.15,0.5,2.16,1.19,3.03,2.05c0.86,0.86,1.54,1.89,2.02,3.06
		c0.49,1.18,0.73,2.45,0.73,3.79c0,1.35-0.24,2.58-0.73,3.68c-0.48,1.11-1.15,2.05-2.02,2.85c-0.87,0.79-1.88,1.42-3.03,1.87
		c-1.15,0.45-2.4,0.68-3.75,0.68h-37.3v64.08c0,1.35-0.23,2.61-0.68,3.79c-0.46,1.17-1.08,2.2-1.88,3.06
		c-0.8,0.86-1.74,1.55-2.85,2.05c-1.11,0.51-2.33,0.76-3.68,0.76c-1.35,0-2.62-0.25-3.79-0.76c-1.18-0.5-2.2-1.19-3.06-2.05
		c-0.87-0.86-1.55-1.89-2.06-3.06c-0.51-1.18-0.76-2.44-0.76-3.79v-72.74v-0.43c0-2.17,0.61-4.06,1.84-5.7
		c1.23-1.63,2.8-2.79,4.73-3.46c0.09,0,0.17-0.01,0.21-0.03c0.05-0.03,0.1-0.04,0.14-0.04c0.24-0.1,0.49-0.17,0.76-0.22
		c0.27-0.05,0.52-0.09,0.76-0.14c0.23,0,0.45-0.01,0.61-0.04c0.17-0.02,0.37-0.03,0.61-0.03H689.24z"/>
	<path class="st5" d="M788.16,276.41c4.86,0,9.41,0.91,13.68,2.74c4.25,1.83,7.97,4.32,11.14,7.47c3.18,3.15,5.69,6.85,7.54,11.11
		c1.85,4.26,2.78,8.82,2.78,13.68c0,4.81-0.93,9.33-2.78,13.57c-1.85,4.23-4.37,7.91-7.54,11.04c-3.17,3.13-6.89,5.6-11.14,7.43
		c-4.26,1.83-8.82,2.74-13.68,2.74h-17.03v13.35c0,1.3-0.24,2.52-0.73,3.65c-0.48,1.13-1.15,2.1-2.02,2.92
		c-0.86,0.82-1.86,1.47-2.99,1.95c-1.13,0.49-2.34,0.72-3.65,0.72c-1.3,0-2.51-0.23-3.64-0.72c-1.14-0.48-2.13-1.13-2.99-1.95
		c-0.87-0.82-1.55-1.79-2.02-2.92c-0.49-1.13-0.72-2.35-0.72-3.65v-73.74c0-1.3,0.24-2.51,0.72-3.65c0.48-1.13,1.15-2.12,2.02-2.99
		c0.86-0.86,1.86-1.54,2.99-2.02c1.13-0.49,2.34-0.72,3.64-0.72H788.16z M771.14,295.17L771.14,295.17v32.26h17.31
		c2.16,0,4.22-0.43,6.17-1.3c1.95-0.86,3.65-2.05,5.12-3.54c1.46-1.49,2.63-3.19,3.49-5.12c0.87-1.93,1.3-3.95,1.3-6.06
		c0-2.16-0.45-4.22-1.33-6.17c-0.89-1.95-2.07-3.66-3.54-5.15c-1.47-1.49-3.18-2.68-5.12-3.58c-1.95-0.89-3.98-1.33-6.09-1.33
		H771.14z"/>
	<path class="st5" d="M859.88,316.31l15.08-34.13c0.53-1.2,1.26-2.24,2.17-3.1c0.92-0.86,1.93-1.53,3.07-1.99
		c1.13-0.45,2.3-0.68,3.53-0.68s2.44,0.24,3.65,0.72c1.2,0.53,2.24,1.24,3.1,2.13c0.86,0.89,1.52,1.89,1.99,2.99
		c0.45,1.11,0.68,2.3,0.68,3.57s-0.24,2.51-0.72,3.71l-22.8,48.99l-1.44,3.24c-2.27,4.81-4.4,8.93-6.39,12.34
		c-1.99,3.42-4.1,6.24-6.31,8.48c-2.21,2.24-4.64,3.91-7.28,5.02c-2.65,1.11-5.75,1.76-9.31,1.95c-0.19,0.05-0.39,0.08-0.58,0.08
		c-0.2,0-0.41,0-0.65,0c-1.3,0-2.52-0.2-3.68-0.58c-1.15-0.39-2.17-0.94-3.03-1.66c-0.86-0.73-1.55-1.6-2.05-2.64
		c-0.51-1.03-0.76-2.2-0.76-3.5c0-1.34,0.25-2.61,0.76-3.78c0.5-1.18,1.19-2.21,2.05-3.07c0.86-0.86,1.88-1.55,3.03-2.05
		c1.15-0.51,2.38-0.76,3.68-0.76h0.36c1.83,0,3.3-0.22,4.4-0.65c1.11-0.43,2.03-1.08,2.77-1.95c0.74-0.86,1.43-1.93,2.05-3.21
		c0.63-1.27,1.37-2.78,2.24-4.51l0.87-2.24l-23.02-49.5c-0.53-1.21-0.78-2.44-0.76-3.71s0.28-2.46,0.76-3.57
		c0.49-1.11,1.16-2.11,2.02-2.99c0.86-0.89,1.93-1.6,3.17-2.13c1.21-0.49,2.42-0.72,3.65-0.72c1.23,0,2.4,0.23,3.5,0.68
		c1.11,0.45,2.1,1.12,2.99,1.99c0.89,0.86,1.6,1.9,2.13,3.1L859.88,316.31z"/>
	<path class="st5" d="M969.99,276.41h0.14c1.35,0,2.6,0.25,3.75,0.76c1.15,0.5,2.17,1.19,3.03,2.05c0.86,0.86,1.54,1.89,2.02,3.06
		c0.48,1.18,0.72,2.45,0.72,3.79v0.43v72.74c0,1.35-0.26,2.6-0.76,3.75c-0.51,1.15-1.2,2.16-2.06,3.03
		c-0.86,0.86-1.89,1.54-3.06,2.02c-1.18,0.49-2.44,0.72-3.79,0.72c-1.35,0-2.57-0.23-3.68-0.72c-1.11-0.48-2.06-1.15-2.85-2.02
		c-0.8-0.87-1.42-1.88-1.88-3.03c-0.45-1.15-0.68-2.4-0.68-3.75v-64.08h-39.54v64.08c0,1.35-0.23,2.6-0.69,3.75
		c-0.45,1.15-1.08,2.16-1.87,3.03c-0.8,0.86-1.74,1.54-2.85,2.02c-1.11,0.49-2.33,0.72-3.68,0.72c-1.35,0-2.61-0.23-3.78-0.72
		c-1.18-0.48-2.21-1.15-3.07-2.02c-0.86-0.87-1.55-1.88-2.05-3.03c-0.51-1.15-0.76-2.4-0.76-3.75v-72.74v-0.43
		c0-1.34,0.24-2.61,0.72-3.79c0.49-1.17,1.15-2.2,2.02-3.06c0.86-0.86,1.87-1.55,3.02-2.05c1.16-0.51,2.41-0.76,3.75-0.76h57.44
		H969.99z"/>
	<path class="st5" d="M1062.93,276.41h0.14c1.35,0,2.59,0.25,3.75,0.76c1.15,0.5,2.16,1.19,3.03,2.05c0.86,0.86,1.54,1.89,2.02,3.06
		c0.49,1.18,0.72,2.45,0.72,3.79v0.43v72.74c0,1.35-0.25,2.6-0.75,3.75c-0.51,1.15-1.2,2.16-2.06,3.03
		c-0.86,0.86-1.89,1.54-3.06,2.02c-1.18,0.49-2.44,0.72-3.79,0.72c-1.35,0-2.58-0.23-3.68-0.72c-1.11-0.48-2.05-1.15-2.85-2.02
		c-0.79-0.87-1.42-1.88-1.87-3.03c-0.45-1.15-0.69-2.4-0.69-3.75v-64.08h-39.54v64.08c0,1.35-0.23,2.6-0.68,3.75
		c-0.45,1.15-1.08,2.16-1.87,3.03c-0.8,0.86-1.75,1.54-2.86,2.02c-1.11,0.49-2.33,0.72-3.68,0.72c-1.35,0-2.61-0.23-3.79-0.72
		c-1.17-0.48-2.2-1.15-3.06-2.02c-0.86-0.87-1.55-1.88-2.05-3.03c-0.51-1.15-0.76-2.4-0.76-3.75v-72.74v-0.43
		c0-1.34,0.23-2.61,0.72-3.79c0.48-1.17,1.15-2.2,2.02-3.06c0.86-0.86,1.88-1.55,3.03-2.05c1.15-0.51,2.4-0.76,3.75-0.76h57.44
		H1062.93z"/>
	<path class="st5" d="M678.9,422.18c0-6.86,5.15-12.32,12.42-12.32c5.36,0,9.94,3.43,11.26,8.25h-3.35
		c-1.12-3.09-4.27-5.19-7.91-5.19c-5.57,0-9.3,4.04-9.3,9.27c0,5.19,3.73,9.23,9.3,9.23c3.63,0,6.78-2.07,7.91-5.15h3.35
		c-1.32,4.82-5.9,8.25-11.26,8.25C684.05,434.5,678.9,429,678.9,422.18z"/>
	<polygon class="st5" points="719.31,416.48 708.52,434.06 705.97,434.06 705.97,410.31 709.13,410.31 709.13,427.85 719.88,410.31 
		722.43,410.31 722.43,434.06 719.31,434.06 	"/>
	<path class="st5" d="M726.27,422.18c0-6.86,5.15-12.32,12.42-12.32c5.36,0,9.94,3.43,11.27,8.25h-3.36
		c-1.12-3.09-4.27-5.19-7.91-5.19c-5.57,0-9.3,4.04-9.3,9.27c0,5.19,3.73,9.23,9.3,9.23c3.63,0,6.79-2.07,7.91-5.15h3.36
		c-1.33,4.82-5.9,8.25-11.27,8.25C731.42,434.5,726.27,429,726.27,422.18z"/>
	<polygon class="st5" points="766.51,413.29 760.17,413.29 760.17,434.06 757.04,434.06 757.04,413.29 750.73,413.29 750.73,410.31 
		760.17,410.31 766.51,410.31 	"/>
	<polygon class="st5" points="783.38,431.07 783.38,434.06 770.82,434.06 769.64,434.06 769.64,410.31 772.8,410.31 783.21,410.31 
		783.21,413.29 772.8,413.29 772.8,420.59 782.36,420.59 782.36,423.54 772.8,423.54 772.8,431.07 	"/>
	<polygon class="st5" points="809.44,434.06 806.32,434.06 806.32,415.49 799.7,430.06 796.99,430.06 790.38,415.49 790.38,434.06 
		787.22,434.06 787.22,410.31 790.38,410.31 790.98,410.31 798.34,426.46 805.67,410.31 809.44,410.31 	"/>
	<polygon class="st5" points="830.92,410.31 830.92,434.06 827.77,434.06 827.77,423.33 817.69,423.33 817.69,434.06 814.54,434.06 
		814.54,410.31 817.69,410.31 817.69,420.35 827.77,420.35 827.77,410.31 	"/>
	<path class="st5" d="M836.02,410.31h3.16v8.99h5.46c4.11,0,7.43,3.33,7.43,7.37c0,4.11-3.33,7.4-7.43,7.4h-8.62V410.31z
		 M844.63,431.1L844.63,431.1c2.37,0,4.27-1.97,4.27-4.44c0-2.44-1.9-4.41-4.27-4.41h-5.46v8.85H844.63z M854.48,410.31
		L854.48,410.31h3.12v23.75h-3.12V410.31z"/>
	<path class="st5" d="M876.02,416.48l-10.79,17.58h-2.55v-23.75h3.16v17.55l10.75-17.55h2.55v23.75h-3.12V416.48z M866.69,405.18
		L866.69,405.18h9.16v2.58h-9.16V405.18z"/>
	<polygon class="st5" points="909.11,434.06 905.96,434.06 905.96,413.29 895.88,413.29 895.88,434.06 892.72,434.06 892.72,410.31 
		895.88,410.31 909.11,410.31 	"/>
	<path class="st5" d="M912.95,422.18c0-6.86,5.4-12.32,12.28-12.32c6.89,0,12.32,5.47,12.32,12.32c0,6.82-5.43,12.32-12.32,12.32
		C918.35,434.5,912.95,429,912.95,422.18z M934.4,422.18L934.4,422.18c0-5.23-3.97-9.27-9.16-9.27c-5.19,0-9.16,4.04-9.16,9.27
		c0,5.19,3.97,9.23,9.16,9.23C930.43,431.41,934.4,427.37,934.4,422.18z"/>
	<path class="st5" d="M959.31,431.1v2.96v4.88h-3.12v-4.88h-14.77v4.88h-3.16v-6.11v-1.73h2.04c1.29-1.56,2.25-3.87,2.25-8.38
		v-12.42h14.22v20.8H959.31z M953.64,431.1L953.64,431.1v-17.85h-7.94v9.54c0,4.38-0.88,6.78-1.83,8.31H953.64z"/>
	<polygon class="st5" points="976.01,434.06 970.27,424.66 964.54,434.06 961.04,434.06 968.51,421.8 961.48,410.31 965.01,410.31 
		970.27,418.92 975.56,410.31 979.06,410.31 972.04,421.8 979.54,434.06 	"/>
	<path class="st5" d="M980.35,422.18c0-6.86,5.4-12.32,12.28-12.32c6.89,0,12.32,5.47,12.32,12.32c0,6.82-5.43,12.32-12.32,12.32
		C985.75,434.5,980.35,429,980.35,422.18z M1001.8,422.18L1001.8,422.18c0-5.23-3.97-9.27-9.16-9.27c-5.19,0-9.16,4.04-9.16,9.27
		c0,5.19,3.98,9.23,9.16,9.23C997.83,431.41,1001.8,427.37,1001.8,422.18z"/>
	<path class="st5" d="M1026.71,431.1v2.96v4.88h-3.12v-4.88h-14.77v4.88h-3.15v-6.11v-1.73h2.04c1.29-1.56,2.24-3.87,2.24-8.38
		v-12.42h14.22v20.8H1026.71z M1021.04,431.1L1021.04,431.1v-17.85h-7.94v9.54c0,4.38-0.89,6.78-1.83,8.31H1021.04z"/>
	<polygon class="st5" points="692.67,474.67 682.41,463.27 682.41,474.67 679.26,474.67 679.26,450.92 682.41,450.92 682.41,461.67 
		692.32,450.92 696.19,450.92 685.71,462.49 696.53,474.67 	"/>
	<path class="st5" d="M706.58,462.79c0-6.86,5.4-12.32,12.28-12.32c6.89,0,12.32,5.47,12.32,12.32c0,6.82-5.42,12.32-12.32,12.32
		C711.98,475.11,706.58,469.61,706.58,462.79z M728.03,462.79L728.03,462.79c0-5.23-3.97-9.27-9.16-9.27s-9.16,4.04-9.16,9.27
		c0,5.19,3.97,9.23,9.16,9.23S728.03,467.98,728.03,462.79z"/>
	<path class="st5" d="M733.73,462.79c0-6.86,5.15-12.32,12.42-12.32c5.36,0,9.94,3.43,11.27,8.25h-3.36
		c-1.12-3.09-4.27-5.19-7.91-5.19c-5.57,0-9.3,4.04-9.3,9.27c0,5.19,3.73,9.23,9.3,9.23c3.63,0,6.78-2.07,7.91-5.15h3.36
		c-1.33,4.82-5.9,8.25-11.27,8.25C738.88,475.11,733.73,469.61,733.73,462.79z"/>
	<polygon class="st5" points="777.2,450.92 777.2,474.67 774.04,474.67 774.04,463.94 763.96,463.94 763.96,474.67 760.81,474.67 
		760.81,450.92 763.96,450.92 763.96,460.96 774.04,460.96 774.04,450.92 	"/>
	<path class="st5" d="M795.87,469.34h-10.59l-1.9,5.33h-3.35l8.75-23.75h3.56l8.79,23.75h-3.36L795.87,469.34z M794.78,466.38
		L794.78,466.38l-4.21-11.77l-4.24,11.77H794.78z"/>
	<polygon class="st5" points="832.21,471.68 832.21,479.55 829.05,479.55 829.05,474.67 803.94,474.67 803.94,450.92 807.09,450.92 
		807.09,471.68 815.24,471.68 815.24,450.92 818.36,450.92 818.36,471.68 826.51,471.68 826.51,450.92 829.67,450.92 829.67,471.68 
			"/>
	<polygon class="st5" points="849.58,471.68 849.58,474.67 837.02,474.67 835.84,474.67 835.84,450.92 839,450.92 849.42,450.92 
		849.42,453.9 839,453.9 839,461.2 848.56,461.2 848.56,464.15 839,464.15 839,471.68 	"/>
	<polygon class="st5" points="869.81,450.92 869.81,474.67 866.66,474.67 866.66,463.94 856.58,463.94 856.58,474.67 853.42,474.67 
		853.42,450.92 856.58,450.92 856.58,460.96 866.66,460.96 866.66,450.92 	"/>
	<polygon class="st5" points="888.24,457.09 877.44,474.67 874.9,474.67 874.9,450.92 878.06,450.92 878.06,468.46 888.81,450.92 
		891.36,450.92 891.36,474.67 888.24,474.67 	"/>
	<path class="st5" d="M928.11,462.79c0,6.82-5.43,12.32-12.32,12.32c-6.52,0-11.57-4.89-12.11-11.17h-4.07v10.73h-3.16v-23.75h3.16
		v10.04h4.14c0.85-5.97,5.77-10.49,12.05-10.49C922.68,450.47,928.11,455.93,928.11,462.79z M924.96,462.79L924.96,462.79
		c0-5.23-3.97-9.27-9.16-9.27c-5.19,0-9.16,4-9.16,9.27c0,5.19,3.97,9.23,9.16,9.23C920.99,472.02,924.96,467.98,924.96,462.79z"/>
</g>
</svg>
